<svg width="50" height="50" viewBox="0 0 50 50" fill="none" xmlns="http://www.w3.org/2000/svg">
<path d="M42.7117 42.6859C32.9536 52.438 17.1472 52.438 7.34879 42.6859C-2.4496 32.8934 -2.4496 17.0965 7.34879 7.34435C17.1069 -2.44812 32.9133 -2.44812 42.7117 7.34435C52.4294 17.0965 52.4294 32.8934 42.7117 42.6859Z" fill="#B3D9F3"/>
<path d="M31.986 16.1293L31.7441 27.171C31.7441 27.171 30.3731 28.8635 24.9699 28.8635C19.6473 28.8635 18.8006 26.9292 18.8006 26.9292L18.5989 16.774C18.357 16.8143 18.8812 16.774 18.5989 16.774C15.736 16.8143 12.9135 14.5173 12.9135 11.6562C12.9135 8.79498 15.2522 6.45769 18.1151 6.45769C18.8409 6.45769 19.5667 6.61888 20.2119 6.90097C21.0586 5.20844 22.8731 4.03979 24.8893 4.03979C26.8248 4.03979 28.3973 5.12785 29.3248 6.69948C30.1715 6.05471 31.2199 5.73232 32.3893 5.73232C35.2522 5.73232 37.5909 8.02932 37.5909 10.9308C37.6312 13.792 34.8893 16.1293 31.986 16.1293C32.228 16.1293 31.8248 16.1293 31.986 16.1293Z" fill="white"/>
<path d="M11.1797 22.8592C11.1797 22.4159 11.1393 22.0532 11.099 21.8517C11.0184 21.3682 10.7764 20.9249 10.3732 20.5622C9.96999 20.1995 9.52645 20.0383 8.96193 20.0383C8.39741 20.0383 7.87322 20.2398 7.46999 20.6428C7.02645 20.2398 6.54257 20.0383 5.97806 20.0383C5.45386 20.0383 4.92967 20.2398 4.56677 20.5622C4.20386 20.8846 3.92161 21.2876 3.80064 21.8517C3.76032 22.0935 3.71999 22.4159 3.71999 22.8592V26.3249C3.71999 26.5263 3.88128 26.6069 4.00225 26.6069C4.20386 26.6069 4.28451 26.4457 4.28451 26.3249V22.7383C4.28451 22.0935 4.40548 21.5697 4.68774 21.1667C4.96999 20.7234 5.41354 20.5219 6.01838 20.5219C6.46193 20.5219 6.82483 20.6831 7.14741 21.0055C6.86515 21.4891 6.74419 22.0129 6.74419 22.7383V26.2846C6.74419 26.4457 6.86515 26.5666 7.02644 26.5666C7.22806 26.5666 7.3087 26.4054 7.3087 26.2846V22.698C7.3087 22.1741 7.38935 21.7712 7.51032 21.4891C7.63128 21.8115 7.71193 22.295 7.71193 22.8592V26.3249C7.71193 26.486 7.8329 26.6069 7.99419 26.6069C8.1958 26.6069 8.27644 26.4457 8.27644 26.3249V22.6174C8.27644 21.892 8.15548 21.3682 7.87322 20.9652C8.15548 20.6831 8.51838 20.5219 8.96193 20.5219C9.36515 20.5219 9.72806 20.6428 10.0103 20.8846C10.2926 21.0861 10.4942 21.4085 10.6152 21.8115C10.6958 22.0532 10.6958 22.3353 10.6958 22.7383V26.3249C10.6958 26.486 10.8168 26.6069 10.9781 26.6069C11.1797 26.6069 11.2603 26.4457 11.2603 26.3249L11.22 26.1234V22.8592H11.1797Z" fill="black"/>
<path d="M17.7119 21.0458C17.0668 20.401 16.2603 20.0786 15.3329 20.0786C14.4055 20.0786 13.599 20.401 12.9539 21.0458C12.3087 21.6905 11.9861 22.4965 11.9861 23.4234C11.9861 24.3502 12.3087 25.1562 12.9942 25.801C13.6797 26.4457 14.4861 26.7681 15.4135 26.7681C16.099 26.7681 16.7442 26.5666 17.2684 26.2039V26.2845C17.2684 26.5666 17.4297 26.6472 17.5506 26.6472C17.6716 26.6472 17.8329 26.5263 17.8329 26.2845V25.7607C18.4781 25.0756 18.8006 24.3099 18.8006 23.4234C18.72 22.4562 18.3571 21.6502 17.7119 21.0458ZM17.1877 23.4637V25.5592C16.6232 26.0427 16.0184 26.2845 15.3329 26.2845C14.5668 26.2845 13.8813 26.0024 13.3571 25.4383C12.7926 24.9144 12.5506 24.2696 12.5506 23.4637C12.5506 22.6577 12.8329 22.0129 13.3974 21.4488C13.9619 20.8846 14.6071 20.6025 15.4135 20.6025C16.1797 20.6025 16.8652 20.8846 17.3893 21.4488C17.9135 22.0129 18.2361 22.6577 18.2361 23.4234C18.2361 23.9875 18.0748 24.4711 17.7926 24.9144V23.4637C17.7119 23.0607 17.1877 23.0607 17.1877 23.4637Z" fill="black"/>
<path d="M22.349 26.7681C23.1152 26.7681 23.841 26.5263 24.4861 26.0024C24.6474 25.8815 24.7684 25.8009 24.849 25.68H24.8893V25.6398C24.9297 25.5995 24.9297 25.5592 24.9297 25.4786C24.9297 25.3577 24.849 25.2368 24.6877 25.2368H24.5264L24.4861 25.3174V25.398C24.2039 25.6398 23.8813 25.8815 23.5587 26.0427C23.1958 26.2039 22.7926 26.3248 22.4297 26.3248C21.6232 26.3248 20.9781 26.0427 20.4539 25.4786C19.8893 24.9144 19.6071 24.2696 19.6071 23.4636C19.6071 22.698 19.8893 22.0129 20.4539 21.489C20.9781 20.9249 21.6232 20.6831 22.4297 20.6831C23.1958 20.6831 23.8813 20.9652 24.4458 21.5293L24.5668 21.6099H24.7281L24.7684 21.5696C24.849 21.5293 24.8893 21.4487 24.8893 21.3681V21.2875L24.849 21.2472C24.849 21.2472 24.849 21.2069 24.8087 21.2069C24.7684 21.1666 24.7684 21.1264 24.7281 21.1264C24.1232 20.4816 23.3168 20.1189 22.349 20.1189C21.4216 20.1189 20.6152 20.4413 19.97 21.0861C19.3248 21.7308 19.0022 22.5368 19.0022 23.4636C19.0022 24.3502 19.3248 25.1562 19.97 25.8412C20.6555 26.4457 21.4619 26.7681 22.349 26.7681Z" fill="black"/>
<path d="M30.6555 21.0458C30.0103 20.401 29.2039 20.0786 28.2764 20.0786C27.349 20.0786 26.5426 20.401 25.8974 21.0458C25.2523 21.6905 24.9297 22.4965 24.9297 23.4234C24.9297 24.3502 25.2523 25.1562 25.8974 25.801C26.5829 26.4457 27.3893 26.7681 28.3168 26.7681C29.0023 26.7681 29.6474 26.5666 30.1716 26.2039V26.2845C30.1716 26.5666 30.3329 26.6472 30.4539 26.6472C30.5748 26.6472 30.7361 26.5263 30.7361 26.2845V25.7607C31.3813 25.0756 31.7039 24.3099 31.7039 23.4234C31.6635 22.4159 31.341 21.6502 30.6555 21.0458ZM30.1313 23.4637V25.5592C29.5668 26.0427 28.9619 26.2845 28.2764 26.2845C27.5103 26.2845 26.8248 26.0024 26.2603 25.4383C25.6958 24.9144 25.4539 24.2696 25.4539 23.4637C25.4539 22.6577 25.7361 22.0129 26.3006 21.4488C26.8652 20.8846 27.5103 20.6025 28.3168 20.6025C29.0829 20.6025 29.7684 20.8846 30.2926 21.4488C30.8571 22.0129 31.1393 22.6577 31.1393 23.4234C31.1393 23.9875 30.9781 24.5114 30.6958 24.9547V23.504C30.6555 23.0607 30.1313 23.0607 30.1313 23.4637Z" fill="black"/>
<path d="M32.5103 26.6472C32.7119 26.6472 32.7926 26.486 32.7926 26.3651V23.7457C32.7926 23.0607 32.8329 22.6577 32.9135 22.3756C33.0345 21.9323 33.2764 21.5696 33.599 21.2875C33.9216 21.0054 34.2845 20.8442 34.6877 20.7234C34.8893 20.7234 34.97 20.5622 34.97 20.4413C34.97 20.2398 34.849 20.1995 34.7684 20.1592H34.7281H34.6877C34.4861 20.1592 34.2442 20.2398 33.9619 20.401C33.4781 20.6428 33.0748 20.9651 32.7926 21.4084C32.7926 21.1666 32.7926 20.8442 32.7926 20.4816C32.7926 20.0786 32.2281 20.0786 32.2281 20.4816V26.3651C32.2281 26.5263 32.349 26.6472 32.5103 26.6472Z" fill="black"/>
<path d="M40.8168 21.0458C40.1716 20.401 39.3652 20.0786 38.4377 20.0786C37.5103 20.0786 36.7039 20.401 36.0587 21.0458C35.4135 21.6905 35.091 22.4965 35.091 23.4234C35.091 24.3502 35.4135 25.1562 36.0587 25.801C36.7442 26.4457 37.5506 26.7681 38.4781 26.7681C39.4055 26.7681 40.2119 26.4457 40.8571 25.7607C41.5023 25.0756 41.8248 24.2696 41.8248 23.3428C41.8248 22.4562 41.5023 21.6502 40.8168 21.0458ZM38.4377 20.6025C39.2039 20.6025 39.8893 20.8846 40.4135 21.4488C40.9781 22.0129 41.2603 22.6577 41.2603 23.4234C41.2603 24.2293 40.9781 24.9144 40.3732 25.4383C39.849 26.0024 39.2039 26.2442 38.3974 26.2442C37.6313 26.2442 36.9458 25.9622 36.4216 25.398C35.8571 24.8338 35.5748 24.189 35.5748 23.4234C35.5748 22.6174 35.8571 21.9726 36.4216 21.4085C36.9458 20.8443 37.6313 20.6025 38.4377 20.6025Z" fill="black"/>
<path d="M47.0668 21.7712C46.9861 21.2876 46.7442 20.8846 46.3006 20.5219C45.8974 20.1995 45.4135 19.998 44.8894 19.998C44.4861 19.998 44.1232 20.0786 43.8006 20.2801C43.5587 20.4413 43.3168 20.6025 43.1555 20.8443V20.4413C43.1555 20.0383 42.591 20.0383 42.591 20.4413V26.3249C42.591 26.5264 42.7523 26.607 42.8732 26.607C43.0748 26.607 43.1555 26.4458 43.1555 26.3249V22.9801C43.1555 22.6174 43.1555 22.295 43.1958 22.1339C43.2764 21.6503 43.4377 21.2876 43.72 21.0055C44.0426 20.7234 44.4458 20.5622 44.849 20.5622C45.1716 20.5622 45.4942 20.6428 45.7361 20.804C46.099 21.0055 46.341 21.3279 46.4216 21.7309C46.5023 21.9727 46.5023 22.4159 46.5023 22.9801V26.3249C46.5023 26.4861 46.6232 26.607 46.7845 26.607C46.8652 26.607 46.9458 26.5667 46.9861 26.5264H47.1071V22.698C47.1474 22.3353 47.1071 22.013 47.0668 21.7712Z" fill="black"/>
<path d="M16.341 34.3845C16.0587 34.3845 16.0184 34.5457 16.0184 34.6666C16.0184 34.8681 16.1797 34.9487 16.3006 34.9487C16.6232 34.9487 16.8652 35.0293 17.1474 35.1905C17.6716 35.4726 17.9539 35.9561 17.9539 36.5606C17.9539 37.0039 17.7926 37.3666 17.47 37.689C17.1474 38.0114 16.7845 38.1725 16.341 38.1725C15.6958 38.1725 15.2523 37.8905 14.8893 37.3263C14.7684 37.1651 14.6877 36.9233 14.6877 36.6412C14.6877 36.4397 14.5668 36.3188 14.4055 36.3188C14.2039 36.3188 14.1232 36.48 14.1232 36.6009C14.1232 37.1651 14.3652 37.689 14.8087 38.0517C15.2119 38.4546 15.7361 38.6561 16.3006 38.6561C16.9055 38.6561 17.4297 38.4546 17.8329 38.0114C18.2361 37.6084 18.4781 37.0845 18.4781 36.48C18.4781 35.8756 18.2764 35.392 17.8732 34.989C17.47 34.6263 16.9458 34.3845 16.341 34.3845Z" fill="black"/>
<path d="M16.22 32.6921C16.7442 32.6921 17.1071 32.8936 17.349 33.3369C17.3893 33.4175 17.47 33.5786 17.5103 33.7398C17.5103 33.9413 17.6313 34.0622 17.7926 34.0622C17.9539 34.0622 18.0748 33.9413 18.0748 33.7801C18.0748 33.2966 17.8329 32.8936 17.4297 32.6518C17.0668 32.3294 16.6635 32.1682 16.1797 32.1682C15.6958 32.1682 15.2523 32.3294 14.8893 32.6921C14.5668 33.0951 14.3652 33.4981 14.3652 33.9816C14.3652 34.4652 14.5264 34.9085 14.8893 35.2712C15.2119 35.6339 15.6555 35.8354 16.1393 35.8354C16.341 35.8354 16.4619 35.7145 16.4619 35.5533C16.4619 35.3921 16.341 35.2712 16.1797 35.2712C15.8168 35.2712 15.5345 35.1503 15.2926 34.9085C15.0506 34.6667 14.9297 34.3443 14.9297 33.9816C14.9297 33.6189 15.0506 33.2966 15.2926 33.0548C15.6152 32.813 15.8974 32.6921 16.22 32.6921Z" fill="black"/>
<path d="M23.3571 34.868C23.3571 34.4248 23.3168 34.1024 23.2764 33.9009C23.1555 33.377 22.9135 32.974 22.5506 32.6919C22.1474 32.3293 21.7442 32.1681 21.22 32.1681C20.8571 32.1681 20.4942 32.2487 20.1716 32.4502C19.8893 32.5711 19.6877 32.7725 19.5264 32.974V30.5561C19.5264 30.1532 18.9619 30.1532 18.9619 30.5561V38.2531C18.9619 38.4546 19.1232 38.5352 19.2442 38.5352C19.4458 38.5352 19.5264 38.374 19.5264 38.2531V35.0292C19.5264 34.7875 19.5264 34.586 19.5668 34.4248C19.5668 34.3039 19.5668 34.2233 19.5668 34.183C19.6474 33.7397 19.8087 33.377 20.091 33.0949C20.4135 32.8128 20.7361 32.6919 21.22 32.6919C21.5426 32.6919 21.8652 32.7725 22.1071 32.9337C22.47 33.1755 22.6716 33.4576 22.7523 33.8203C22.8329 34.0621 22.8329 34.4651 22.8329 35.0292V38.2531C22.8329 38.4143 22.9539 38.5352 23.1152 38.5352C23.3168 38.5352 23.3974 38.374 23.3974 38.2531L23.3571 38.0516V34.868Z" fill="black"/>
<path d="M29.5668 33.0951C28.9216 32.4503 28.1555 32.1279 27.2684 32.1279C26.3813 32.1279 25.5748 32.4503 24.97 33.0951C24.3248 33.7399 24.0023 34.5055 24.0023 35.3921C24.0023 36.2786 24.3248 37.0846 24.97 37.6891C25.6152 38.3339 26.3813 38.6562 27.3087 38.6562C28.2361 38.6562 29.0023 38.3339 29.6071 37.6891C30.2523 37.0443 30.5748 36.2786 30.5748 35.3518C30.5748 34.4249 30.2523 33.6996 29.5668 33.0951ZM25.3329 37.3264C24.8087 36.8025 24.5264 36.1578 24.5264 35.3921C24.5264 34.6264 24.8087 33.9816 25.3329 33.4175C25.8571 32.8936 26.5023 32.6115 27.3087 32.6115C28.0345 32.6115 28.72 32.8936 29.2442 33.4175C29.7684 33.9414 30.0506 34.5861 30.0506 35.3518C30.0506 36.1175 29.7684 36.8025 29.2039 37.3264C28.6797 37.8503 28.0345 38.1324 27.2684 38.1324C26.5426 38.1324 25.8571 37.8503 25.3329 37.3264Z" fill="black"/>
<path d="M34.3652 32.1279C33.4377 32.1279 32.6716 32.4503 32.0668 33.0951C31.4619 33.7399 31.099 34.5055 31.099 35.3921C31.099 36.2786 31.4216 37.0443 32.0264 37.6891V40.3085C32.0264 40.4697 32.1474 40.5906 32.3087 40.5906C32.5103 40.5906 32.591 40.4294 32.591 40.3085V38.1727C33.1152 38.5353 33.72 38.6965 34.3652 38.6965C35.2926 38.6965 36.099 38.3742 36.7039 37.7697C37.349 37.1249 37.7119 36.3995 37.7119 35.4727C37.7119 34.5458 37.349 33.7802 36.7039 33.1354C36.0587 32.4503 35.2926 32.1279 34.3652 32.1279ZM32.3087 35.11C32.1877 35.11 32.0264 35.2309 32.0264 35.4324V36.8025C31.7845 36.3995 31.6635 35.916 31.6635 35.3921C31.6635 34.6667 31.9458 33.9816 32.47 33.4578C33.0345 32.8936 33.6797 32.6518 34.4458 32.6518C35.2119 32.6518 35.8571 32.9339 36.4216 33.4578C36.9458 33.9816 37.2281 34.6264 37.2281 35.4324C37.2281 36.1981 36.9458 36.8428 36.3813 37.3667C35.8571 37.8906 35.2119 38.1727 34.4458 38.1727C33.7603 38.1727 33.1555 37.9309 32.6313 37.4473V35.4324C32.591 35.1503 32.4297 35.11 32.3087 35.11Z" fill="black"/>
<path d="M22.8732 41.2351V44.1366L25.4942 42.6455L22.8732 41.2351Z" fill="black"/>
<path d="M27.9943 41.2351V44.1366L25.3733 42.6455L27.9943 41.2351Z" fill="black"/>
</svg>
